<svg xmlns="http://www.w3.org/2000/svg" style="background: transparent; background-color: transparent; color-scheme: light dark;" xmlns:xlink="http://www.w3.org/1999/xlink" version="1.1" width="1200px" height="565px" viewBox="-0.5 -0.5 1200 565"><defs/><g><g><path d="M 662 79.5 L 662 116.8 Q 662 126.8 672 126.8 L 1095 126.8 Q 1105 126.8 1105 136.8 L 1105 165.76" fill="none" stroke="#000000" stroke-width="2" stroke-miterlimit="10" pointer-events="stroke" style="stroke: light-dark(rgb(0, 0, 0), rgb(255, 255, 255));"/><path d="M 1105 171.76 L 1101 163.76 L 1105 165.76 L 1109 163.76 Z" fill="#000000" stroke="#000000" stroke-width="2" stroke-miterlimit="10" pointer-events="all" style="fill: light-dark(rgb(0, 0, 0), rgb(255, 255, 255)); stroke: light-dark(rgb(0, 0, 0), rgb(255, 255, 255));"/></g><g><path d="M 662 79.5 L 662 153.13" fill="none" stroke="#000000" stroke-miterlimit="10" pointer-events="stroke" style="stroke: light-dark(rgb(0, 0, 0), rgb(255, 255, 255));"/><path d="M 662 158.38 L 658.5 151.38 L 662 153.13 L 665.5 151.38 Z" fill="#000000" stroke="#000000" stroke-miterlimit="10" pointer-events="all" style="fill: light-dark(rgb(0, 0, 0), rgb(255, 255, 255)); stroke: light-dark(rgb(0, 0, 0), rgb(255, 255, 255));"/></g><g><rect x="567" y="-0.5" width="190" height="80" rx="12" ry="12" fill="#23445d" stroke="none" pointer-events="all" style="fill: light-dark(rgb(35, 68, 93), rgb(160, 188, 210));"/></g><g><g fill="#FFFFFF" font-family="&quot;Tahoma&quot;" font-weight="bold" text-anchor="middle" font-size="14px" style="fill: light-dark(rgb(255, 255, 255), rgb(18, 18, 18));"><text x="661.5" y="45">刘邦(汉高祖)</text></g></g><g><path d="M 205 239.5 L 205 269.5 Q 205 279.5 195 279.5 L 105 279.5 Q 95 279.5 95 289.5 L 95 313.13" fill="none" stroke="#000000" stroke-miterlimit="10" pointer-events="stroke" style="stroke: light-dark(rgb(0, 0, 0), rgb(255, 255, 255));"/><path d="M 95 318.38 L 91.5 311.38 L 95 313.13 L 98.5 311.38 Z" fill="#000000" stroke="#000000" stroke-miterlimit="10" pointer-events="all" style="fill: light-dark(rgb(0, 0, 0), rgb(255, 255, 255)); stroke: light-dark(rgb(0, 0, 0), rgb(255, 255, 255));"/></g><g><path d="M 205 239.5 L 205 269.5 Q 205 279.5 195 279.5 L 105 279.5 Q 95 279.5 95 289.5 L 95 313.13" fill="none" stroke="#000000" stroke-miterlimit="10" pointer-events="stroke" style="stroke: light-dark(rgb(0, 0, 0), rgb(255, 255, 255));"/><path d="M 95 318.38 L 91.5 311.38 L 95 313.13 L 98.5 311.38 Z" fill="#000000" stroke="#000000" stroke-miterlimit="10" pointer-events="all" style="fill: light-dark(rgb(0, 0, 0), rgb(255, 255, 255)); stroke: light-dark(rgb(0, 0, 0), rgb(255, 255, 255));"/></g><g><path d="M 205 239.5 L 205 269.5 Q 205 279.5 195 279.5 L 105 279.5 Q 95 279.5 95 289.5 L 95 313.13" fill="none" stroke="#000000" stroke-miterlimit="10" pointer-events="stroke" style="stroke: light-dark(rgb(0, 0, 0), rgb(255, 255, 255));"/><path d="M 95 318.38 L 91.5 311.38 L 95 313.13 L 98.5 311.38 Z" fill="#000000" stroke="#000000" stroke-miterlimit="10" pointer-events="all" style="fill: light-dark(rgb(0, 0, 0), rgb(255, 255, 255)); stroke: light-dark(rgb(0, 0, 0), rgb(255, 255, 255));"/></g><g><path d="M 205 239.5 L 205 269.5 Q 205 279.5 195 279.5 L 105 279.5 Q 95 279.5 95 289.5 L 95 313.13" fill="none" stroke="#000000" stroke-miterlimit="10" pointer-events="stroke" style="stroke: light-dark(rgb(0, 0, 0), rgb(255, 255, 255));"/><path d="M 95 318.38 L 91.5 311.38 L 95 313.13 L 98.5 311.38 Z" fill="#000000" stroke="#000000" stroke-miterlimit="10" pointer-events="all" style="fill: light-dark(rgb(0, 0, 0), rgb(255, 255, 255)); stroke: light-dark(rgb(0, 0, 0), rgb(255, 255, 255));"/></g><g><path d="M 205 239.5 L 205 269.5 Q 205 279.5 215 279.5 L 305 279.5 Q 315 279.5 315 289.5 L 315 313.13" fill="none" stroke="#000000" stroke-miterlimit="10" pointer-events="stroke" style="stroke: light-dark(rgb(0, 0, 0), rgb(255, 255, 255));"/><path d="M 315 318.38 L 311.5 311.38 L 315 313.13 L 318.5 311.38 Z" fill="#000000" stroke="#000000" stroke-miterlimit="10" pointer-events="all" style="fill: light-dark(rgb(0, 0, 0), rgb(255, 255, 255)); stroke: light-dark(rgb(0, 0, 0), rgb(255, 255, 255));"/></g><g><rect x="110" y="159.5" width="190" height="80" rx="12" ry="12" fill="#23445d" stroke="none" pointer-events="all" style="fill: light-dark(rgb(35, 68, 93), rgb(160, 188, 210));"/></g><g><g fill="#FFFFFF" font-family="&quot;Tahoma&quot;" font-weight="bold" text-anchor="middle" font-size="14px" style="fill: light-dark(rgb(255, 255, 255), rgb(18, 18, 18));"><text x="204.5" y="196.5">刘盈(刘邦与吕雉嫡长子，</text><text x="204.5" y="213.5">生性善良，是为汉惠帝)</text></g></g><g><path d="M 662 79.5 L 662 110 Q 662 120 652 120 L 215 120 Q 205 120 205 130 L 205 151.26" fill="none" stroke="#000000" stroke-width="2" stroke-miterlimit="10" pointer-events="stroke" style="stroke: light-dark(rgb(0, 0, 0), rgb(255, 255, 255));"/><path d="M 205 157.26 L 201 149.26 L 205 151.26 L 209 149.26 Z" fill="#000000" stroke="#000000" stroke-width="2" stroke-miterlimit="10" pointer-events="all" style="fill: light-dark(rgb(0, 0, 0), rgb(255, 255, 255)); stroke: light-dark(rgb(0, 0, 0), rgb(255, 255, 255));"/></g><g><rect x="1010" y="174" width="190" height="80" rx="12" ry="12" fill="#23445d" stroke="none" pointer-events="all" style="fill: light-dark(rgb(35, 68, 93), rgb(160, 188, 210));"/></g><g><g fill="#FFFFFF" font-family="&quot;Tahoma&quot;" font-weight="bold" text-anchor="middle" font-size="14px" style="fill: light-dark(rgb(255, 255, 255), rgb(18, 18, 18));"><text x="1104.5" y="219.5">刘如意(戚夫人之子)</text></g></g><g><rect x="0" y="319.5" width="190" height="80" rx="12" ry="12" fill="#23445d" stroke="none" pointer-events="all" style="fill: light-dark(rgb(35, 68, 93), rgb(160, 188, 210));"/></g><g><g fill="#FFFFFF" font-family="&quot;Tahoma&quot;" font-weight="bold" text-anchor="middle" font-size="14px" style="fill: light-dark(rgb(255, 255, 255), rgb(18, 18, 18));"><text x="94.5" y="356.5">刘恭(母为宫女，因言致祸，</text><text x="94.5" y="373.5">被吕后杀死，是为前少帝)</text></g></g><g><rect x="220" y="319.5" width="190" height="80" rx="12" ry="12" fill="#23445d" stroke="none" pointer-events="all" style="fill: light-dark(rgb(35, 68, 93), rgb(160, 188, 210));"/></g><g><g fill="#FFFFFF" font-family="&quot;Tahoma&quot;" font-weight="bold" text-anchor="middle" font-size="14px" style="fill: light-dark(rgb(255, 255, 255), rgb(18, 18, 18));"><text x="314.5" y="356.5">刘弘(血统存疑，共灭诸吕被</text><text x="314.5" y="373.5">废，是为后少帝)</text></g></g><g><path d="M 662 239.5 L 662 269.5 Q 662 279.5 652 279.5 L 565 279.5 Q 555 279.5 555 289.5 L 555 313.13" fill="none" stroke="#000000" stroke-miterlimit="10" pointer-events="stroke" style="stroke: light-dark(rgb(0, 0, 0), rgb(255, 255, 255));"/><path d="M 555 318.38 L 551.5 311.38 L 555 313.13 L 558.5 311.38 Z" fill="#000000" stroke="#000000" stroke-miterlimit="10" pointer-events="all" style="fill: light-dark(rgb(0, 0, 0), rgb(255, 255, 255)); stroke: light-dark(rgb(0, 0, 0), rgb(255, 255, 255));"/></g><g><path d="M 662 239.5 L 662 269.5 Q 662 279.5 672 279.5 L 755 279.5 Q 765 279.5 765 289.5 L 765 313.13" fill="none" stroke="#000000" stroke-miterlimit="10" pointer-events="stroke" style="stroke: light-dark(rgb(0, 0, 0), rgb(255, 255, 255));"/><path d="M 765 318.38 L 761.5 311.38 L 765 313.13 L 768.5 311.38 Z" fill="#000000" stroke="#000000" stroke-miterlimit="10" pointer-events="all" style="fill: light-dark(rgb(0, 0, 0), rgb(255, 255, 255)); stroke: light-dark(rgb(0, 0, 0), rgb(255, 255, 255));"/></g><g><rect x="567" y="159.5" width="190" height="80" rx="12" ry="12" fill="#23445d" stroke="none" pointer-events="all" style="fill: light-dark(rgb(35, 68, 93), rgb(160, 188, 210));"/></g><g><g fill="#FFFFFF" font-family="&quot;Tahoma&quot;" font-weight="bold" text-anchor="middle" font-size="14px" style="fill: light-dark(rgb(255, 255, 255), rgb(18, 18, 18));"><text x="661.5" y="205">刘恒(母为薄姬，是为汉文帝)</text></g></g><g><path d="M 555 399.5 L 555 477.63" fill="none" stroke="#000000" stroke-miterlimit="10" pointer-events="stroke" style="stroke: light-dark(rgb(0, 0, 0), rgb(255, 255, 255));"/><path d="M 555 482.88 L 551.5 475.88 L 555 477.63 L 558.5 475.88 Z" fill="#000000" stroke="#000000" stroke-miterlimit="10" pointer-events="all" style="fill: light-dark(rgb(0, 0, 0), rgb(255, 255, 255)); stroke: light-dark(rgb(0, 0, 0), rgb(255, 255, 255));"/></g><g><rect x="460" y="319.5" width="190" height="80" rx="12" ry="12" fill="#23445d" stroke="none" pointer-events="all" style="fill: light-dark(rgb(35, 68, 93), rgb(160, 188, 210));"/></g><g><g fill="#FFFFFF" font-family="&quot;Tahoma&quot;" font-weight="bold" text-anchor="middle" font-size="14px" style="fill: light-dark(rgb(255, 255, 255), rgb(18, 18, 18));"><text x="554.5" y="356.5">刘启(母为窦猗房，是为</text><text x="554.5" y="373.5">汉景帝)</text></g></g><g><rect x="460" y="484" width="190" height="80" rx="12" ry="12" fill="#23445d" stroke="none" pointer-events="all" style="fill: light-dark(rgb(35, 68, 93), rgb(160, 188, 210));"/></g><g><g fill="#FFFFFF" font-family="&quot;Tahoma&quot;" font-weight="bold" text-anchor="middle" font-size="14px" style="fill: light-dark(rgb(255, 255, 255), rgb(18, 18, 18));"><text x="554.5" y="529.5">刘彻(母为王娡，是为汉武帝)</text></g></g><g><rect x="670" y="319.5" width="190" height="80" rx="12" ry="12" fill="#23445d" stroke="none" pointer-events="all" style="fill: light-dark(rgb(35, 68, 93), rgb(160, 188, 210));"/></g><g><g fill="#FFFFFF" font-family="&quot;Tahoma&quot;" font-weight="bold" text-anchor="middle" font-size="14px" style="fill: light-dark(rgb(255, 255, 255), rgb(18, 18, 18));"><text x="764.5" y="348">刘武(母为窦猗房，是为梁王</text><text x="764.5" y="365">其母窦太后曾多次要求景帝</text><text x="764.5" y="382">立梁王为太子)</text></g></g></g></svg>